<?xml version="1.0" encoding="iso-8859-1"?>
<!-- Generator: Adobe Illustrator 19.0.0, SVG Export Plug-In . SVG Version: 6.00 Build 0)  -->
<svg version="1.1" id="Layer_1" xmlns="http://www.w3.org/2000/svg" xmlns:xlink="http://www.w3.org/1999/xlink" x="0px" y="0px"
	 viewBox="0 0 491.52 491.52" style="enable-background:new 0 0 491.52 491.52;" xml:space="preserve">
<path style="fill:#64798A;" d="M469.453,0H22.067C9.88,0,0,9.88,0,22.067v447.387c0,12.187,9.88,22.067,22.067,22.067h447.387
	c12.185,0,22.067-9.88,22.067-22.067V22.067C491.52,9.88,481.639,0,469.453,0z"/>
<g>
	<rect x="35.748" y="91.361" style="fill:#EBF0F3;" width="420.045" height="364.39"/>
	<rect x="35.748" y="31.703" style="fill:#EBF0F3;" width="300.339" height="25.405"/>
</g>
<rect x="35.748" y="442.317" style="fill:#D5D6DB;" width="420.045" height="13.435"/>
<circle style="fill:#FCD462;" cx="363.827" cy="44.406" r="12.703"/>
<circle style="fill:#44C4A1;" cx="403.456" cy="44.406" r="12.703"/>
<g>
	<circle style="fill:#E56353;" cx="443.085" cy="44.406" r="12.703"/>
	<path style="fill:#E56353;" d="M75.363,274.63v-10.292l38.486-17.814v9.316l-28.765,12.986v0.904l28.765,13.312v9.315
		L75.363,274.63z"/>
	<path style="fill:#E56353;" d="M145.952,302.571c-6.044,0-11.244-2.055-15.605-6.164c-4.356-4.116-6.536-9.495-6.536-16.138
		c0-6.649,2.274-12.055,6.821-16.217c4.549-4.169,10.094-6.257,16.63-6.257c6.536,0,12.061,2.267,16.583,6.782l-5.392,6.622
		c-3.757-3.271-7.541-4.907-11.357-4.907c-3.811,0-7.122,1.27-9.928,3.803c-2.806,2.534-4.202,5.798-4.202,9.801
		c0,4.003,1.383,7.394,4.163,10.174c2.779,2.779,6.197,4.169,10.253,4.169c4.063,0,7.886-1.848,11.483-5.559l5.392,5.885
		C158.971,299.904,152.873,302.571,145.952,302.571z"/>
	<path style="fill:#E56353;" d="M209.193,296.075c-4.355,4.335-9.801,6.496-16.337,6.496s-11.981-2.161-16.344-6.496
		c-4.356-4.329-6.536-9.622-6.536-15.892c0-6.264,2.181-11.556,6.536-15.891c4.362-4.329,9.807-6.496,16.344-6.496
		s11.982,2.167,16.337,6.496c4.362,4.335,6.543,9.628,6.543,15.891C215.735,286.452,213.555,291.746,209.193,296.075z
		 M183.008,290.443c2.586,2.639,5.871,3.963,9.847,3.963c3.976,0,7.254-1.324,9.847-3.963c2.586-2.647,3.877-6.064,3.877-10.26
		c0-4.189-1.29-7.607-3.877-10.253c-2.593-2.64-5.871-3.963-9.847-3.963c-3.976,0-7.261,1.323-9.847,3.963
		c-2.586,2.646-3.877,6.064-3.877,10.253C179.131,284.378,180.422,287.796,183.008,290.443z"/>
	<path style="fill:#E56353;" d="M229.459,296.36c-4.082-4.135-6.124-9.581-6.124-16.336c0-6.756,2.095-12.149,6.291-16.178
		c4.189-4.03,9.19-6.05,14.994-6.05c5.798,0,10.466,2.453,14.01,7.354v-23.857h9.149v60.628h-9.149v-6.536
		c-3.378,4.794-8.305,7.188-14.789,7.188C238.336,302.571,233.549,300.503,229.459,296.36z M232.484,280.389
		c0,4.169,1.33,7.56,4.003,10.174c2.667,2.613,5.798,3.922,9.396,3.922c3.597,0,6.643-1.323,9.149-3.963
		c2.507-2.64,3.763-6.031,3.763-10.174c0-4.136-1.257-7.6-3.763-10.379c-2.507-2.773-5.585-4.163-9.23-4.163
		c-3.65,0-6.782,1.39-9.395,4.163C233.788,272.749,232.484,276.22,232.484,280.389z"/>
	<path style="fill:#E56353;" d="M321.458,284.192h-34.07c0.213,3.158,1.662,5.704,4.329,7.633c2.666,1.935,5.719,2.906,9.149,2.906
		c5.445,0,9.588-1.716,12.42-5.147l5.233,5.718c-4.688,4.847-10.785,7.268-18.305,7.268c-6.105,0-11.291-2.029-15.566-6.084
		c-4.275-4.056-6.41-9.509-6.41-16.344c0-6.836,2.174-12.268,6.536-16.298c4.356-4.03,9.488-6.05,15.4-6.05
		c5.911,0,10.931,1.788,15.074,5.352c4.136,3.57,6.21,8.484,6.21,14.748V284.192z M287.387,276.997h24.922
		c0-3.65-1.144-6.456-3.432-8.418c-2.294-1.955-5.106-2.939-8.458-2.939c-3.351,0-6.363,1.024-9.03,3.065
		C288.717,270.747,287.387,273.514,287.387,276.997z"/>
	<path style="fill:#E56353;" d="M361.167,235.653h8.172l-35.381,75.828h-8.172L361.167,235.653z"/>
	<path style="fill:#E56353;" d="M416.157,264.338v10.292l-38.486,17.727v-9.315l28.758-13.312v-0.904l-28.758-12.986v-9.316
		L416.157,264.338z"/>
</g>
<g>
</g>
<g>
</g>
<g>
</g>
<g>
</g>
<g>
</g>
<g>
</g>
<g>
</g>
<g>
</g>
<g>
</g>
<g>
</g>
<g>
</g>
<g>
</g>
<g>
</g>
<g>
</g>
<g>
</g>
</svg>
