<svg height="512" viewBox="0 0 512 512" width="512" xmlns="http://www.w3.org/2000/svg"><g id="Flat"><rect fill="#cececc" height="328" rx="24" width="368" x="120" y="96"/><path d="m488 368a24 24 0 0 1 -24 24h-320a24 24 0 0 1 -24-24v-288a24 24 0 0 1 24-24h320a24 24 0 0 1 24 24z" fill="#d5d5d3"/><path d="m144 56h320a24 24 0 0 1 24 24v64a0 0 0 0 1 0 0h-368a0 0 0 0 1 0 0v-64a24 24 0 0 1 24-24z" fill="#d65246"/><rect fill="#dfdfdd" height="64" rx="16" width="32" x="168" y="24"/><rect fill="#dfdfdd" height="64" rx="16" width="32" x="248" y="24"/><rect fill="#dfdfdd" height="64" rx="16" width="32" x="328" y="24"/><rect fill="#dfdfdd" height="64" rx="16" width="32" x="408" y="24"/><g fill="#c6c6c4"><path d="m232 176h16v16h-16z"/><path d="m168 176h16v16h-16z"/><path d="m360 176h16v16h-16z"/><path d="m424 176h16v16h-16z"/><path d="m296 176h16v16h-16z"/><path d="m232 232h16v16h-16z"/><path d="m168 232h16v16h-16z"/><path d="m360 232h16v16h-16z"/><path d="m424 232h16v16h-16z"/><path d="m296 232h16v16h-16z"/><path d="m232 288h16v16h-16z"/><path d="m168 288h16v16h-16z"/><path d="m360 288h16v16h-16z"/><path d="m424 288h16v16h-16z"/><path d="m296 288h16v16h-16z"/></g><path d="m24 344h416v48h-416z" fill="#eaeae8"/><rect fill="#34507b" height="240" rx="24" width="48" x="104" y="248"/><rect fill="#2f486e" height="176" rx="24" width="48" x="56" y="280"/><rect fill="#34507b" height="240" rx="24" transform="matrix(-1 0 0 -1 672 736)" width="48" x="312" y="248"/><rect fill="#2f486e" height="176" rx="24" transform="matrix(-1 0 0 -1 768 736)" width="48" x="360" y="280"/></g></svg>